<svg data-v-fde0c5aa="" xmlns="http://www.w3.org/2000/svg" viewBox="0 0 300 300" class="iconLeft"><!----><defs data-v-fde0c5aa=""><!----></defs><rect data-v-fde0c5aa="" fill="#c3e5ae" x="0" y="0" width="300px" height="300px" class="logo-background-square"></rect><defs data-v-fde0c5aa=""><!----></defs><g data-v-fde0c5aa="" id="0006f296-6183-4c9c-a68c-5457d1bb591c" fill="#000000" transform="matrix(2.2421557669378793,0,0,2.2421557669378793,81.6365033676472,126.39010037286431)"><path d="M-0.50 14.01L-0.50 14.01Q-0.64 14.01-0.64 13.85L-0.64 13.85L-0.64 13.85Q-0.64 13.75-0.59 13.71L-0.59 13.71L-0.59 13.71Q-0.53 13.66-0.42 13.62L-0.42 13.62L-0.42 13.62Q0.24 13.43 0.57 13.13L0.57 13.13L0.57 13.13Q0.90 12.82 1.20 12.29L1.20 12.29L5.53 4.48L5.53 4.48Q5.57 4.41 5.64 4.37L5.64 4.37L5.64 4.37Q5.71 4.33 5.77 4.34L5.77 4.34L6.31 4.41L6.31 4.41Q6.41 4.45 6.41 4.56L6.41 4.56L7.18 13.19L7.18 13.19Q7.22 13.62 7.63 13.62L7.63 13.62L7.88 13.62L7.88 13.62Q8.02 13.62 8.02 13.78L8.02 13.78L8.02 13.78Q8.02 13.89 7.96 13.95L7.96 13.95L7.96 13.95Q7.90 14.01 7.80 14.01L7.80 14.01L4.90 14.01L4.90 14.01Q4.76 14.01 4.76 13.87L4.76 13.87L4.76 13.87Q4.76 13.79 4.82 13.71L4.82 13.71L4.82 13.71Q4.87 13.62 4.97 13.62L4.97 13.62L5.42 13.62L5.42 13.62Q5.64 13.62 5.75 13.49L5.75 13.49L5.75 13.49Q5.87 13.36 5.85 13.12L5.85 13.12L5.63 10.67L2.44 10.67L1.64 12.08L1.64 12.08Q1.34 12.61 1.34 12.96L1.34 12.96L1.34 12.96Q1.34 13.27 1.53 13.45L1.53 13.45L1.53 13.45Q1.72 13.62 2.07 13.62L2.07 13.62L2.07 13.62Q2.13 13.62 2.15 13.65L2.15 13.65L2.15 13.65Q2.17 13.68 2.17 13.75L2.17 13.75L2.17 13.75Q2.17 14.01 1.97 14.01L1.97 14.01L-0.50 14.01ZM5.22 5.70L2.65 10.32L5.60 10.32L5.22 5.70ZM8.20 16.80L8.20 16.80Q8.09 16.80 8.09 16.67L8.09 16.67L8.09 16.67Q8.09 16.55 8.20 16.55L8.20 16.55L8.55 16.55L8.55 16.55Q8.72 16.55 8.83 16.46L8.83 16.46L8.83 16.46Q8.95 16.37 8.97 16.21L8.97 16.21L10.46 9.73L10.46 9.73Q10.47 9.67 10.53 9.43L10.53 9.43L10.53 9.43Q10.58 9.18 10.58 8.99L10.58 8.99L10.58 8.99Q10.58 8.61 10.33 8.61L10.33 8.61L10.33 8.61Q10.04 8.61 9.67 9.12L9.67 9.12L9.67 9.12Q9.31 9.63 9.04 10.35L9.04 10.35L8.88 10.30L8.88 10.30Q9.31 9.28 9.73 8.76L9.73 8.76L9.73 8.76Q10.15 8.23 10.74 8.23L10.74 8.23L10.74 8.23Q11.13 8.23 11.30 8.45L11.30 8.45L11.30 8.45Q11.48 8.67 11.48 9.02L11.48 9.02L11.48 9.02Q11.48 9.20 11.44 9.41L11.44 9.41L11.44 9.41Q11.55 9.21 11.80 8.94L11.80 8.94L11.80 8.94Q12.05 8.67 12.44 8.45L12.44 8.45L12.44 8.45Q12.82 8.23 13.24 8.23L13.24 8.23L13.24 8.23Q13.90 8.23 14.36 8.76L14.36 8.76L14.36 8.76Q14.83 9.28 14.83 10.23L14.83 10.23L14.83 10.23Q14.83 11.14 14.39 12.03L14.39 12.03L14.39 12.03Q13.96 12.91 13.24 13.47L13.24 13.47L13.24 13.47Q12.52 14.03 11.73 14.03L11.73 14.03L11.73 14.03Q11.28 14.03 11.02 13.85L11.02 13.85L11.02 13.85Q10.75 13.66 10.54 13.33L10.54 13.33L9.90 16.13L9.90 16.13Q9.88 16.17 9.88 16.25L9.88 16.25L9.88 16.25Q9.88 16.39 9.98 16.47L9.98 16.47L9.98 16.47Q10.07 16.55 10.23 16.55L10.23 16.55L10.71 16.55L10.71 16.55Q10.82 16.55 10.82 16.67L10.82 16.67L10.82 16.67Q10.82 16.80 10.71 16.80L10.71 16.80L8.20 16.80ZM11.70 13.79L11.70 13.79Q12.39 13.79 12.88 13.15L12.88 13.15L12.88 13.15Q13.37 12.52 13.62 11.59L13.62 11.59L13.62 11.59Q13.87 10.65 13.87 9.83L13.87 9.83L13.87 9.83Q13.87 9.14 13.67 8.85L13.67 8.85L13.67 8.85Q13.47 8.55 13.03 8.55L13.03 8.55L13.03 8.55Q12.47 8.55 12.03 8.98L12.03 8.98L12.03 8.98Q11.58 9.41 11.31 10.01L11.31 10.01L10.67 12.81L10.67 12.81Q10.75 13.29 11.02 13.54L11.02 13.54L11.02 13.54Q11.28 13.79 11.70 13.79L11.70 13.79ZM16.38 14.01L16.38 14.01Q16.28 14.01 16.23 13.95L16.23 13.95L16.23 13.95Q16.17 13.89 16.20 13.78L16.20 13.78L16.53 12.39L16.53 12.39Q16.88 10.93 17.04 10.21L17.04 10.21L17.04 10.21Q17.19 9.49 17.19 9.10L17.19 9.10L17.19 9.10Q17.19 8.65 16.97 8.65L16.97 8.65L16.97 8.65Q16.67 8.65 16.32 9.14L16.32 9.14L16.32 9.14Q15.96 9.62 15.68 10.35L15.68 10.35L15.51 10.30L15.51 10.30Q15.93 9.32 16.35 8.78L16.35 8.78L16.35 8.78Q16.77 8.23 17.36 8.23L17.36 8.23L17.36 8.23Q18.14 8.23 18.14 9.04L18.14 9.04L18.14 9.04Q18.14 9.30 18.05 9.72L18.05 9.72L18.05 9.72Q18.06 9.69 18.27 9.30L18.27 9.30L18.27 9.30Q18.48 8.92 18.93 8.58L18.93 8.58L18.93 8.58Q19.38 8.23 19.88 8.23L19.88 8.23L19.88 8.23Q20.24 8.25 20.43 8.41L20.43 8.41L20.43 8.41Q20.61 8.58 20.61 8.86L20.61 8.86L20.61 8.86Q20.61 8.93 20.58 9.10L20.58 9.10L20.58 9.10Q20.52 9.41 20.32 9.62L20.32 9.62L20.32 9.62Q20.12 9.83 19.85 9.83L19.85 9.83L19.85 9.83Q19.68 9.83 19.58 9.72L19.58 9.72L19.58 9.72Q19.47 9.62 19.47 9.41L19.47 9.41L19.47 9.41Q19.47 9.25 19.52 9.16L19.52 9.16L19.52 9.16Q19.57 9.07 19.67 8.97L19.67 8.97L19.67 8.97Q19.80 8.82 19.80 8.72L19.80 8.72L19.80 8.72Q19.80 8.55 19.59 8.55L19.59 8.55L19.59 8.55Q19.31 8.55 18.96 8.81L18.96 8.81L18.96 8.81Q18.61 9.07 18.28 9.60L18.28 9.60L18.28 9.60Q17.96 10.14 17.78 10.91L17.78 10.91L17.12 13.83L17.12 13.83Q17.08 14.01 16.90 14.01L16.90 14.01L16.38 14.01ZM23.13 6.41L23.13 6.41Q22.95 6.41 22.82 6.27L22.82 6.27L22.82 6.27Q22.69 6.13 22.69 5.92L22.69 5.92L22.69 5.92Q22.69 5.63 22.93 5.36L22.93 5.36L22.93 5.36Q23.16 5.08 23.44 5.08L23.44 5.08L23.44 5.08Q23.65 5.08 23.79 5.24L23.79 5.24L23.79 5.24Q23.93 5.39 23.93 5.60L23.93 5.60L23.93 5.60Q23.93 5.88 23.67 6.15L23.67 6.15L23.67 6.15Q23.42 6.41 23.13 6.41L23.13 6.41ZM21.90 14.15L21.90 14.15Q21.55 14.15 21.29 13.94L21.29 13.94L21.29 13.94Q21.03 13.72 21.03 13.29L21.03 13.29L21.03 13.29Q21.03 12.92 21.20 12.39L21.20 12.39L21.20 12.39Q21.36 11.86 21.70 10.95L21.70 10.95L21.70 10.95Q21.74 10.82 21.92 10.34L21.92 10.34L21.92 10.34Q22.09 9.86 22.18 9.54L22.18 9.54L22.18 9.54Q22.26 9.23 22.26 9.04L22.26 9.04L22.26 9.04Q22.26 8.88 22.19 8.76L22.19 8.76L22.19 8.76Q22.12 8.65 21.98 8.65L21.98 8.65L21.98 8.65Q21.67 8.65 21.32 9.11L21.32 9.11L21.32 9.11Q20.97 9.58 20.66 10.35L20.66 10.35L20.50 10.30L20.50 10.30Q20.92 9.35 21.35 8.79L21.35 8.79L21.35 8.79Q21.78 8.23 22.39 8.23L22.39 8.23L22.39 8.23Q22.75 8.23 22.97 8.44L22.97 8.44L22.97 8.44Q23.20 8.64 23.20 9.04L23.20 9.04L23.20 9.04Q23.20 9.39 23.04 9.92L23.04 9.92L23.04 9.92Q22.88 10.44 22.58 11.23L22.58 11.23L22.58 11.23Q22.27 12.07 22.13 12.51L22.13 12.51L22.13 12.51Q21.99 12.95 21.99 13.26L21.99 13.26L21.99 13.26Q21.99 13.71 22.30 13.71L22.30 13.71L22.30 13.71Q22.62 13.71 22.96 13.24L22.96 13.24L22.96 13.24Q23.30 12.77 23.60 12.03L23.60 12.03L23.76 12.07L23.76 12.07Q23.35 13.05 22.93 13.60L22.93 13.60L22.93 13.60Q22.51 14.15 21.90 14.15L21.90 14.15ZM27.51 4.75L25.65 13.03L25.65 13.03Q25.61 13.20 25.61 13.31L25.61 13.31L25.61 13.31Q25.61 13.71 25.96 13.71L25.96 13.71L25.96 13.71Q26.56 13.71 27.26 12.03L27.26 12.03L27.41 12.07L27.41 12.07Q26.98 13.06 26.57 13.61L26.57 13.61L26.57 13.61Q26.17 14.15 25.55 14.15L25.55 14.15L25.55 14.15Q25.20 14.15 24.95 13.97L24.95 13.97L24.95 13.97Q24.70 13.78 24.70 13.34L24.70 13.34L24.70 13.34Q24.70 13.19 24.74 12.98L24.74 12.98L26.52 5.19L26.52 5.19Q26.53 5.14 26.53 5.05L26.53 5.05L26.53 5.05Q26.53 4.80 26.33 4.75L26.33 4.75L26.33 4.75Q26.12 4.70 25.75 4.70L25.75 4.70L25.75 4.70Q25.56 4.70 25.56 4.56L25.56 4.56L25.56 4.56Q25.56 4.48 25.61 4.45L25.61 4.45L25.61 4.45Q25.65 4.41 25.75 4.41L25.75 4.41L27.29 4.41L27.29 4.41Q27.52 4.41 27.52 4.63L27.52 4.63L27.52 4.63Q27.52 4.70 27.51 4.75L27.51 4.75ZM30.34 7.38L30.34 7.38Q30.31 7.38 30.28 7.15L30.28 7.15L30.28 7.15Q30.25 6.93 30.25 6.61L30.25 6.61L30.25 6.61Q30.25 5.61 30.42 4.93L30.42 4.93L30.42 4.93Q30.48 4.66 30.67 4.46L30.67 4.46L30.67 4.46Q30.87 4.26 31.07 4.26L31.07 4.26L31.07 4.26Q31.23 4.26 31.35 4.42L31.35 4.42L31.35 4.42Q31.47 4.58 31.47 4.79L31.47 4.79L31.47 4.79Q31.47 4.89 31.46 4.93L31.46 4.93L31.46 4.93Q31.36 5.38 31.12 5.95L31.12 5.95L31.12 5.95Q30.87 6.52 30.64 6.95L30.64 6.95L30.64 6.95Q30.41 7.38 30.34 7.38L30.34 7.38ZM33.18 14.14L33.18 14.14Q32.58 14.14 32.09 13.83L32.09 13.83L32.09 13.83Q31.60 13.51 31.60 13.02L31.60 13.02L31.60 13.02Q31.60 12.80 31.71 12.68L31.71 12.68L31.71 12.68Q31.82 12.56 32.00 12.56L32.00 12.56L32.00 12.56Q32.17 12.56 32.29 12.65L32.29 12.65L32.29 12.65Q32.41 12.74 32.41 12.92L32.41 12.92L32.41 12.92Q32.41 13.02 32.35 13.17L32.35 13.17L32.35 13.17Q32.28 13.33 32.28 13.41L32.28 13.41L32.28 13.41Q32.28 13.64 32.56 13.74L32.56 13.74L32.56 13.74Q32.83 13.85 33.18 13.85L33.18 13.85L33.18 13.85Q33.80 13.85 34.30 13.51L34.30 13.51L34.30 13.51Q34.80 13.17 34.80 12.54L34.80 12.54L34.80 12.54Q34.80 12.07 34.52 11.85L34.52 11.85L34.52 11.85Q34.23 11.63 33.63 11.42L33.63 11.42L33.63 11.42Q33.21 11.28 32.95 11.16L32.95 11.16L32.95 11.16Q32.69 11.03 32.52 10.78L32.52 10.78L32.52 10.78Q32.34 10.53 32.34 10.14L32.34 10.14L32.34 10.14Q32.34 9.62 32.63 9.18L32.63 9.18L32.63 9.18Q32.93 8.75 33.39 8.49L33.39 8.49L33.39 8.49Q33.85 8.23 34.34 8.23L34.34 8.23L34.34 8.23Q34.90 8.23 35.36 8.55L35.36 8.55L35.36 8.55Q35.81 8.88 35.81 9.35L35.81 9.35L35.81 9.35Q35.81 9.59 35.70 9.71L35.70 9.71L35.70 9.71Q35.59 9.83 35.41 9.83L35.41 9.83L35.41 9.83Q35.24 9.83 35.12 9.74L35.12 9.74L35.12 9.74Q35.00 9.66 35.00 9.49L35.00 9.49L35.00 9.49Q35.00 9.39 35.06 9.24L35.06 9.24L35.06 9.24Q35.13 9.09 35.13 9.00L35.13 9.00L35.13 9.00Q35.13 8.76 34.87 8.63L34.87 8.63L34.87 8.63Q34.62 8.50 34.27 8.50L34.27 8.50L34.27 8.50Q33.71 8.50 33.36 8.84L33.36 8.84L33.36 8.84Q33.01 9.18 33.01 9.62L33.01 9.62L33.01 9.62Q33.01 10.00 33.27 10.17L33.27 10.17L33.27 10.17Q33.53 10.35 34.06 10.53L34.06 10.53L34.06 10.53Q34.51 10.68 34.79 10.82L34.79 10.82L34.79 10.82Q35.07 10.96 35.27 11.25L35.27 11.25L35.27 11.25Q35.46 11.54 35.46 12.00L35.46 12.00L35.46 12.00Q35.46 12.61 35.11 13.10L35.11 13.10L35.11 13.10Q34.76 13.59 34.24 13.87L34.24 13.87L34.24 13.87Q33.71 14.14 33.18 14.14L33.18 14.14ZM43.48 14.14L43.48 14.14Q42.56 14.14 41.85 13.67L41.85 13.67L41.85 13.67Q41.13 13.20 40.74 12.38L40.74 12.38L40.74 12.38Q40.35 11.55 40.35 10.50L40.35 10.50L40.35 10.50Q40.35 9.88 40.50 9.18L40.50 9.18L40.50 9.18Q40.81 7.85 41.63 6.72L41.63 6.72L41.63 6.72Q42.45 5.59 43.54 4.92L43.54 4.92L43.54 4.92Q44.63 4.26 45.75 4.26L45.75 4.26L45.75 4.26Q46.69 4.26 47.45 4.75L47.45 4.75L47.45 4.75Q47.56 4.80 47.67 4.80L47.67 4.80L47.67 4.80Q47.91 4.80 48.19 4.61L48.19 4.61L48.19 4.61Q48.27 4.52 48.34 4.50L48.34 4.50L48.34 4.50Q48.40 4.48 48.50 4.48L48.50 4.48L48.50 4.48Q48.59 4.48 48.62 4.52L48.62 4.52L48.62 4.52Q48.64 4.55 48.62 4.66L48.62 4.66L48.19 6.75L48.19 6.75Q48.17 6.83 48.12 6.88L48.12 6.88L48.12 6.88Q48.06 6.93 48.01 6.93L48.01 6.93L48.01 6.93Q47.94 6.93 47.90 6.90L47.90 6.90L47.90 6.90Q47.87 6.86 47.85 6.73L47.85 6.73L47.85 6.73Q47.82 6.48 47.59 5.90L47.59 5.90L47.59 5.90Q47.35 5.32 47.10 5.07L47.10 5.07L47.10 5.07Q46.70 4.61 45.68 4.61L45.68 4.61L45.68 4.61Q44.52 4.61 43.55 5.71L43.55 5.71L43.55 5.71Q42.59 6.82 42.04 9.18L42.04 9.18L42.04 9.18Q41.76 10.43 41.76 11.38L41.76 11.38L41.76 11.38Q41.76 12.63 42.25 13.22L42.25 13.22L42.25 13.22Q42.73 13.82 43.57 13.82L43.57 13.82L43.57 13.82Q44.63 13.82 45.51 12.89L45.51 12.89L45.51 12.89Q45.77 12.59 45.92 12.07L45.92 12.07L46.23 10.68L46.23 10.61L46.23 10.61Q46.23 10.47 46.17 10.39L46.17 10.39L46.17 10.39Q46.10 10.30 45.98 10.30L45.98 10.30L45.42 10.30L45.42 10.30Q45.36 10.30 45.32 10.26L45.32 10.26L45.32 10.26Q45.28 10.21 45.28 10.14L45.28 10.14L45.28 10.14Q45.28 10.04 45.34 9.99L45.34 9.99L45.34 9.99Q45.40 9.94 45.50 9.94L45.50 9.94L48.40 9.94L48.40 9.94Q48.55 9.94 48.55 10.05L48.55 10.05L48.55 10.05Q48.55 10.14 48.48 10.22L48.48 10.22L48.48 10.22Q48.41 10.30 48.31 10.30L48.31 10.30L47.95 10.30L47.95 10.30Q47.81 10.30 47.67 10.42L47.67 10.42L47.67 10.42Q47.53 10.54 47.50 10.68L47.50 10.68L46.96 13.15L46.82 13.92L46.82 13.92Q46.79 14.00 46.73 14.07L46.73 14.07L46.73 14.07Q46.66 14.14 46.59 14.14L46.59 14.14L46.59 14.14Q46.47 14.14 46.42 14.00L46.42 14.00L46.24 12.96L46.20 12.96L46.20 12.96Q45.50 13.55 44.85 13.85L44.85 13.85L44.85 13.85Q44.20 14.14 43.48 14.14L43.48 14.14ZM50.68 14.20L50.68 14.20Q50.30 14.20 49.91 14.01L49.91 14.01L49.91 14.01Q49.52 13.82 49.25 13.40L49.25 13.40L49.25 13.40Q48.97 12.98 48.97 12.31L48.97 12.31L48.97 12.31Q48.97 11.45 49.40 10.49L49.40 10.49L49.40 10.49Q49.83 9.53 50.52 8.88L50.52 8.88L50.52 8.88Q51.21 8.23 51.95 8.23L51.95 8.23L51.95 8.23Q52.35 8.23 52.67 8.45L52.67 8.45L52.67 8.45Q52.99 8.67 53.17 8.95L53.17 8.95L53.17 8.95Q53.21 9.00 53.27 9.00L53.27 9.00L53.27 9.00Q53.37 9.00 53.40 8.90L53.40 8.90L53.48 8.61L53.48 8.61Q53.52 8.43 53.70 8.43L53.70 8.43L54.15 8.43L54.15 8.43Q54.38 8.43 54.33 8.67L54.33 8.67L54.33 8.67Q53.30 12.84 53.30 13.34L53.30 13.34L53.30 13.34Q53.30 13.51 53.39 13.61L53.39 13.61L53.39 13.61Q53.48 13.71 53.62 13.71L53.62 13.71L53.62 13.71Q53.91 13.71 54.25 13.25L54.25 13.25L54.25 13.25Q54.59 12.80 54.91 12.03L54.91 12.03L55.06 12.07L55.06 12.07Q54.61 13.13 54.20 13.64L54.20 13.64L54.20 13.64Q53.79 14.15 53.13 14.15L53.13 14.15L53.13 14.15Q52.72 14.15 52.58 13.96L52.58 13.96L52.58 13.96Q52.44 13.76 52.36 13.37L52.36 13.37L52.36 13.37Q52.35 13.22 52.25 13.33L52.25 13.33L52.25 13.33Q51.83 13.75 51.47 13.97L51.47 13.97L51.47 13.97Q51.11 14.20 50.68 14.20L50.68 14.20ZM50.78 13.83L50.78 13.83Q51.45 13.83 51.87 13.38L51.87 13.38L51.87 13.38Q52.29 12.94 52.57 12.13L52.57 12.13L52.57 12.13Q52.85 11.33 53.16 9.90L53.16 9.90L53.16 9.90Q53.16 9.41 52.93 8.97L52.93 8.97L52.93 8.97Q52.70 8.54 52.21 8.54L52.21 8.54L52.21 8.54Q51.55 8.54 51.02 9.22L51.02 9.22L51.02 9.22Q50.50 9.90 50.20 10.89L50.20 10.89L50.20 10.89Q49.91 11.87 49.91 12.70L49.91 12.70L49.91 12.70Q49.91 13.26 50.10 13.55L50.10 13.55L50.10 13.55Q50.29 13.83 50.78 13.83L50.78 13.83ZM56.64 14.01L56.64 14.01Q56.55 14.01 56.49 13.95L56.49 13.95L56.49 13.95Q56.43 13.89 56.46 13.78L56.46 13.78L56.80 12.39L56.80 12.39Q57.15 10.93 57.30 10.21L57.30 10.21L57.30 10.21Q57.46 9.49 57.46 9.10L57.46 9.10L57.46 9.10Q57.46 8.65 57.23 8.65L57.23 8.65L57.23 8.65Q56.94 8.65 56.58 9.14L56.58 9.14L56.58 9.14Q56.22 9.62 55.94 10.35L55.94 10.35L55.78 10.30L55.78 10.30Q56.20 9.32 56.62 8.78L56.62 8.78L56.62 8.78Q57.04 8.23 57.62 8.23L57.62 8.23L57.62 8.23Q58.41 8.23 58.41 9.04L58.41 9.04L58.41 9.04Q58.41 9.30 58.31 9.72L58.31 9.72L58.31 9.72Q58.32 9.69 58.53 9.30L58.53 9.30L58.53 9.30Q58.74 8.92 59.19 8.58L59.19 8.58L59.19 8.58Q59.64 8.23 60.14 8.23L60.14 8.23L60.14 8.23Q60.51 8.25 60.69 8.41L60.69 8.41L60.69 8.41Q60.87 8.58 60.87 8.86L60.87 8.86L60.87 8.86Q60.87 8.93 60.84 9.10L60.84 9.10L60.84 9.10Q60.79 9.41 60.59 9.62L60.59 9.62L60.59 9.62Q60.38 9.83 60.12 9.83L60.12 9.83L60.12 9.83Q59.95 9.83 59.84 9.72L59.84 9.72L59.84 9.72Q59.74 9.62 59.74 9.41L59.74 9.41L59.74 9.41Q59.74 9.25 59.79 9.16L59.79 9.16L59.79 9.16Q59.84 9.07 59.93 8.97L59.93 8.97L59.93 8.97Q60.06 8.82 60.06 8.72L60.06 8.72L60.06 8.72Q60.06 8.55 59.85 8.55L59.85 8.55L59.85 8.55Q59.57 8.55 59.22 8.81L59.22 8.81L59.22 8.81Q58.87 9.07 58.55 9.60L58.55 9.60L58.55 9.60Q58.23 10.14 58.04 10.91L58.04 10.91L57.39 13.83L57.39 13.83Q57.34 14.01 57.16 14.01L57.16 14.01L56.64 14.01ZM62.44 14.20L62.44 14.20Q62.06 14.20 61.67 14.01L61.67 14.01L61.67 14.01Q61.28 13.82 61.01 13.40L61.01 13.40L61.01 13.40Q60.73 12.98 60.73 12.31L60.73 12.31L60.73 12.31Q60.73 11.45 61.16 10.49L61.16 10.49L61.16 10.49Q61.59 9.53 62.28 8.88L62.28 8.88L62.28 8.88Q62.97 8.23 63.71 8.23L63.71 8.23L63.71 8.23Q64.11 8.23 64.44 8.46L64.44 8.46L64.44 8.46Q64.76 8.69 64.96 8.99L64.96 8.99L65.02 9.02L65.02 9.02Q65.14 9.02 65.16 8.90L65.16 8.90L65.45 7.77L65.59 7.13L65.59 7.13Q65.95 5.49 66.04 5.19L66.04 5.19L66.04 5.19Q66.05 5.15 66.05 5.07L66.05 5.07L66.05 5.07Q66.05 4.82 65.86 4.76L65.86 4.76L65.86 4.76Q65.66 4.70 65.27 4.70L65.27 4.70L65.27 4.70Q65.07 4.70 65.07 4.56L65.07 4.56L65.07 4.56Q65.07 4.48 65.11 4.45L65.11 4.45L65.11 4.45Q65.16 4.41 65.27 4.41L65.27 4.41L66.81 4.41L66.81 4.41Q67.05 4.41 67.05 4.63L67.05 4.63L67.05 4.63Q67.05 4.70 67.03 4.75L67.03 4.75L66.40 7.41L66.07 8.82L66.07 8.82Q65.06 12.82 65.06 13.34L65.06 13.34L65.06 13.34Q65.06 13.51 65.15 13.61L65.15 13.61L65.15 13.61Q65.24 13.71 65.38 13.71L65.38 13.71L65.38 13.71Q65.67 13.71 66.01 13.25L66.01 13.25L66.01 13.25Q66.35 12.80 66.67 12.03L66.67 12.03L66.82 12.07L66.82 12.07Q66.37 13.13 65.96 13.64L65.96 13.64L65.96 13.64Q65.55 14.15 64.89 14.15L64.89 14.15L64.89 14.15Q64.48 14.15 64.34 13.96L64.34 13.96L64.34 13.96Q64.20 13.76 64.12 13.37L64.12 13.37L64.12 13.37Q64.11 13.22 64.01 13.33L64.01 13.33L64.01 13.33Q63.59 13.75 63.23 13.97L63.23 13.97L63.23 13.97Q62.87 14.20 62.44 14.20L62.44 14.20ZM62.54 13.83L62.54 13.83Q63.21 13.83 63.63 13.38L63.63 13.38L63.63 13.38Q64.05 12.94 64.33 12.13L64.33 12.13L64.33 12.13Q64.61 11.33 64.92 9.90L64.92 9.90L64.92 9.90Q64.92 9.41 64.69 8.97L64.69 8.97L64.69 8.97Q64.46 8.54 63.97 8.54L63.97 8.54L63.97 8.54Q63.31 8.54 62.78 9.22L62.78 9.22L62.78 9.22Q62.26 9.90 61.96 10.89L61.96 10.89L61.96 10.89Q61.67 11.87 61.67 12.70L61.67 12.70L61.67 12.70Q61.67 13.26 61.86 13.55L61.86 13.55L61.86 13.55Q62.05 13.83 62.54 13.83L62.54 13.83ZM69.47 14.14L69.47 14.14Q68.66 14.14 68.08 13.61L68.08 13.61L68.08 13.61Q67.51 13.08 67.51 12.08L67.51 12.08L67.51 12.08Q67.51 11.80 67.61 11.27L67.61 11.27L67.61 11.27Q67.82 10.36 68.33 9.67L68.33 9.67L68.33 9.67Q68.85 8.97 69.50 8.60L69.50 8.60L69.50 8.60Q70.14 8.23 70.71 8.23L70.71 8.23L70.71 8.23Q71.58 8.23 71.97 8.80L71.97 8.80L71.97 8.80Q72.35 9.37 72.35 10.12L72.35 10.12L72.35 10.12Q72.35 10.47 72.30 10.68L72.30 10.68L72.30 10.68Q72.23 11.02 71.97 11.02L71.97 11.02L69.33 11.02L69.33 11.02Q68.98 11.02 68.82 11.07L68.82 11.07L68.82 11.07Q68.66 11.12 68.61 11.31L68.61 11.31L68.61 11.31Q68.60 11.41 68.53 11.77L68.53 11.77L68.53 11.77Q68.46 12.14 68.46 12.45L68.46 12.45L68.46 12.45Q68.46 13.83 69.73 13.83L69.73 13.83L69.78 13.83L69.78 13.83Q70.20 13.82 70.64 13.57L70.64 13.57L70.64 13.57Q71.08 13.33 71.64 12.67L71.64 12.67L71.64 12.67Q71.69 12.61 71.79 12.61L71.79 12.61L71.79 12.61Q71.86 12.61 71.88 12.66L71.88 12.66L71.88 12.66Q71.90 12.70 71.85 12.78L71.85 12.78L71.85 12.78Q71.74 12.95 71.42 13.27L71.42 13.27L71.42 13.27Q71.11 13.58 70.59 13.86L70.59 13.86L70.59 13.86Q70.07 14.14 69.47 14.14L69.47 14.14ZM68.81 10.67L71.04 10.67L71.04 10.67Q71.23 10.67 71.27 10.63L71.27 10.63L71.27 10.63Q71.32 10.60 71.36 10.42L71.36 10.42L71.36 10.42Q71.46 10.02 71.46 9.53L71.46 9.53L71.46 9.53Q71.46 8.47 70.73 8.47L70.73 8.47L70.73 8.47Q70.20 8.47 69.67 9.02L69.67 9.02L69.67 9.02Q69.15 9.58 68.81 10.67L68.81 10.67ZM77.67 14.15L77.67 14.15Q77.31 14.15 77.06 13.94L77.06 13.94L77.06 13.94Q76.82 13.72 76.82 13.19L76.82 13.19L76.82 13.19Q76.82 12.78 76.94 12.31L76.94 12.31L76.94 12.31Q77.06 11.84 77.31 11.09L77.31 11.09L77.31 11.09Q77.50 10.49 77.61 10.10L77.61 10.10L77.61 10.10Q77.71 9.72 77.71 9.44L77.71 9.44L77.71 9.44Q77.71 8.83 77.14 8.83L77.14 8.83L77.14 8.83Q76.58 8.83 76.20 9.35L76.20 9.35L76.20 9.35Q75.81 9.87 75.55 10.67L75.55 10.67L75.55 10.67Q75.29 11.47 74.91 12.98L74.91 12.98L74.70 13.83L74.70 13.83Q74.66 14.01 74.48 14.01L74.48 14.01L73.92 14.01L73.92 14.01Q73.81 14.01 73.76 13.94L73.76 13.94L73.76 13.94Q73.71 13.87 73.74 13.78L73.74 13.78L73.74 13.78Q73.84 13.36 74.30 11.51L74.30 11.51L74.30 11.51Q74.55 10.54 74.68 9.98L74.68 9.98L74.68 9.98Q74.80 9.41 74.80 9.09L74.80 9.09L74.80 9.09Q74.80 8.64 74.52 8.64L74.52 8.64L74.52 8.64Q74.23 8.64 73.86 9.11L73.86 9.11L73.86 9.11Q73.50 9.58 73.21 10.32L73.21 10.32L73.04 10.28L73.04 10.28Q73.44 9.34 73.87 8.79L73.87 8.79L73.87 8.79Q74.30 8.23 74.93 8.23L74.93 8.23L74.93 8.23Q75.39 8.23 75.55 8.45L75.55 8.45L75.55 8.45Q75.71 8.67 75.71 9.00L75.71 9.00L75.70 9.34L75.70 9.34Q75.70 9.46 75.74 9.46L75.74 9.46L75.74 9.46Q75.77 9.46 75.82 9.41L75.82 9.41L75.82 9.41Q75.88 9.34 76.13 9.02L76.13 9.02L76.13 9.02Q76.37 8.71 76.80 8.47L76.80 8.47L76.80 8.47Q77.22 8.23 77.77 8.23L77.77 8.23L77.77 8.23Q78.75 8.23 78.75 9.10L78.75 9.10L78.75 9.10Q78.75 9.44 78.64 9.86L78.64 9.86L78.64 9.86Q78.53 10.29 78.32 10.95L78.32 10.95L78.32 10.95Q78.08 11.68 77.95 12.19L77.95 12.19L77.95 12.19Q77.81 12.71 77.81 13.16L77.81 13.16L77.81 13.16Q77.81 13.45 77.88 13.58L77.88 13.58L77.88 13.58Q77.95 13.71 78.11 13.71L78.11 13.71L78.11 13.71Q78.69 13.71 79.39 12.03L79.39 12.03L79.55 12.07L79.55 12.07Q79.11 13.09 78.70 13.62L78.70 13.62L78.70 13.62Q78.29 14.15 77.67 14.15L77.67 14.15Z"></path></g><defs data-v-fde0c5aa=""><!----></defs><g data-v-fde0c5aa="" id="6a9f7bbe-9794-4133-809c-4bfe4d6d7189" stroke="none" fill="#000000" transform="matrix(0.42175139702842895,0,0,0.42175139702842895,32.72317874293163,128.9127542823629)"><path d="M50.138.287c.264-.312.731-.361 1.09-.191.447.213.796.58 1.125.942.851.974 1.541 2.075 2.217 3.175.733 1.233 1.453 2.478 2.048 3.784l.173.074c.896-1.47 1.507-3.127 2.662-4.428.481-.539 1.169-1.013 1.928-.893.539.048 1.01.433 1.213.928.354.814.337 1.73.269 2.599-.098 1.391-.433 2.748-.661 4.121 2.107-.607 4.387-.822 6.523-.245.499.177 1.22.429 1.194 1.074-.005.388-.402.53-.697.666-1.498.632-2.997 1.47-3.953 2.827-.289.415-.535.869-.618 1.374.494.018 1.021-.003 1.471.238.646.335 1.115.919 1.536 1.497.86 1.252 1.508 2.636 2.078 4.039.047.111.112.212.193.302-.484-1.56-.767-3.201-.693-4.837.046-.833.262-1.731.904-2.312.386-.378.933-.536 1.461-.561 2.062-.188 4.189.805 5.36 2.514.412.591.684 1.295.697 2.021-.01.708-.364 1.37-.817 1.896-.941 1.093-2.172 1.872-3.367 2.654l.241.306c1.46-1.009 3.131-1.911 4.956-1.868 1.084.011 2.022.798 2.447 1.759.752 1.66.706 3.543.507 5.317-.063.609-.262 1.276-.798 1.634-.589.396-1.35.347-2.008.188-1.729-.458-3.202-1.517-4.686-2.471 1.169 1.031 2.261 2.143 3.39 3.217.64.601 1.224 1.395 1.178 2.315-.043.819-.622 1.492-1.275 1.929-1.069.715-2.344 1.044-3.597 1.259-.95.108-1.933.287-2.871.015-.874 1.389-2.151 2.459-3.138 3.757.71-.044 1.422-.166 2.135-.078 1.736.134 3.34 1.032 4.554 2.251.281.238.209.679-.061.891-.322.144-.686.108-1.027.09-1.458-.097-2.948.181-4.249.855-1.021.496-1.859 1.273-2.772 1.933-1.335 1-2.74 2.024-4.401 2.386-1.244.283-2.567.005-3.653-.644-.159-.065-.352-.265-.521-.114-.56.358-1.136.728-1.58 1.227 2.2 1.317 3.972 3.384 4.792 5.825l-.039.118c-2.905 1.631-6.402 1.484-9.58.93a32.566 32.566 0 0 0-1.831 5.45c-.098.434-.271.872-.173 1.321 1.021 6.715 2.253 13.399 3.763 20.021 1.201 5.187 2.554 10.354 4.411 15.347-.868.448-1.806.765-2.737 1.059-.625-1.627-1.055-3.326-1.581-4.989-1.26-4.245-2.465-8.513-3.472-12.824.229 5.521.551 11.053 1.454 16.51.077.511.229 1.012.232 1.532-1.139-.251-2.257-.66-3.202-1.354-.352-4.55-.531-9.112-.781-13.668-.062-1.921-.169-3.84-.195-5.762 0-.156-.076-.296-.12-.44.034.461-.021.923-.069 1.383-.324 3.405-.548 6.821-.726 10.237-.017.537-.057 1.074-.027 1.612-.813-.065-1.622-.185-2.433-.259.043-2.157.26-4.312.398-6.466.377-5.039.772-10.08 1.374-15.098.02-.285-.044-.565-.094-.843-.6-3.117-1.288-6.218-2.052-9.299-.484-1.794-.898-3.617-1.523-5.363-1.347 1.132-3.122 1.68-4.868 1.674-2.031.033-4.036-.538-5.867-1.387.703-2.143 1.341-4.438 2.989-6.075-.292-.167-.577-.654-.948-.401-1.205.607-2.651.564-3.895.093-1.132-.389-2.045-1.185-3.043-1.812-1.296-.831-2.651-1.593-4.105-2.113-1.046-.354-2.162-.591-3.27-.447-.362.033-.802.115-1.082-.187-.299-.335-.203-.843.042-1.176a2.96 2.96 0 0 1 .997-.804c1.167-.622 2.495-.851 3.799-.966-.939-1.117-2.103-2.067-2.846-3.343-.226-.361-.236-.866.042-1.198.214-.275.599-.193.902-.232-.238-.918-.37-2.056.35-2.8.827-.821 1.831-1.437 2.832-2.018.235-.156.561-.231.685-.509-.676-.018-1.336.208-2.013.24-1.409.105-2.956.133-4.192-.656-.72-.45-1.049-1.283-1.197-2.082-.212-1.197-.074-2.492.578-3.538.447-.763 1.223-1.377 2.121-1.463.548-.072 1.075.167 1.53.449 1.169.728 2.131 1.731 3.104 2.689-.792-1.339-1.702-2.708-1.866-4.293-.106-.758.213-1.607.934-1.945 2.071-1.081 4.812-.254 6.179 1.575.414.535.67 1.208.592 1.892-.126 1.397-.81 2.667-1.557 3.829-.143.153-.066.361.159.315.668-1.09 1.465-2.19 2.652-2.758.695-.383 1.578-.317 2.242.098.946.573 1.575 1.536 2.079 2.496.369-.48.818-.959 1.462-1.013-.069-.469-.243-.915-.355-1.374-1.129.029-2.271-.269-3.196-.928-1.018-.687-1.799-1.673-2.375-2.745-.98-1.823-2.061-3.604-3.404-5.184-.976-1.115-2.105-2.153-3.491-2.723-.322-.141-.688-.196-.973-.412-.378-.289-.364-.923-.011-1.226.476-.444 1.161-.545 1.787-.562 1.542-.046 3.029.451 4.461.967-.389-1.479-.972-2.914-1.2-4.434-.053-.515-.132-1.159.314-1.532.425-.311.998-.105 1.351.222 1.502 1.298 2.473 3.08 3.808 4.524.04-1.537.298-3.11 1.117-4.441.666-1.129 1.62-2.081 2.703-2.813.301-.216.823-.068.865.331.043.704-.274 1.368-.335 2.066-.294 1.912.071 3.896.944 5.616.713 1.381 1.467 2.747 2.026 4.201.064.151.106.325.24.436.149-.293.305-.583.483-.859-.728-.783-1.25-1.8-1.241-2.889-.079-1.385.544-2.879 1.775-3.593.959-.558 2.139-.463 3.16-.141-.172-1.384.632-2.856 1.953-3.353.952-.374 2.008-.125 2.91.275-.012-1.443-.527-2.809-.946-4.169-.174-.582-.272-1.325.213-1.786zm.588.681c-.053.8.349 1.522.537 2.279.486 1.548.708 3.198.456 4.81-.466 2.894-1.324 5.79-1.014 8.747.163 2.183 1.139 4.327 2.84 5.736 1.054.854 2.263 1.753 3.684 1.732 1.264.003 2.322-.835 3.156-1.701.354-.319-.146-.721-.146-1.093-.186-2.235 1.373-4.361 3.421-5.16.055-.558.236-1.1.513-1.587.818-1.501 2.259-2.552 3.766-3.291.199-.116.461-.148.618-.322-.091-.161-.331-.108-.481-.173-2.022-.44-4.146-.16-6.083.521-.254.125-.624.018-.711-.267-.11-.275-.05-.573-.007-.854.272-1.676.701-3.339.707-5.046-.04-.566-.076-1.198-.521-1.612-.663-.171-1.154.393-1.534.844-.852 1.097-1.406 2.38-2.076 3.588-.21.374-.423.765-.764 1.039-.259.217-.694.244-.911-.048-.266-.36-.41-.79-.612-1.186-.848-1.65-1.761-3.272-2.805-4.81-.429-.618-.867-1.238-1.402-1.77-.18-.169-.366-.372-.631-.376zM37.452 5.856c-.912.903-1.665 2.008-1.977 3.266-.288.961-.227 1.974-.258 2.963-.022.282-.087.659-.419.728-.359.138-.696-.106-.921-.365-.767-.858-1.419-1.806-2.129-2.709-.644-.78-1.215-1.66-2.056-2.246.044 1.665.76 3.211 1.195 4.796.108.475.429 1.039.084 1.485-.259.214-.571.05-.834-.056a15.108 15.108 0 0 0-2.83-.948c-.866-.155-1.814-.367-2.654.003.256.203.582.275.868.422a9.584 9.584 0 0 1 2.355 1.663c1.928 1.845 3.317 4.159 4.584 6.485.523.951 1.221 1.829 2.127 2.441 1.008.678 2.325.93 3.49.531 1.006-.3 1.733-1.118 2.356-1.92.856-1.106 1.148-2.597.826-3.952-.475-2.166-1.646-4.082-2.621-6.045-1.038-2.102-1.292-4.539-.79-6.822-.142.08-.284.161-.396.28zm11 .92c-1.112.336-1.822 1.676-1.427 2.78.312.982 1.029 1.769 1.776 2.448.408-.1.819.05 1.224.1.233-1.323.495-2.64.758-3.958a3.13 3.13 0 0 0 .055-.88c-.734-.358-1.559-.718-2.386-.49zm-5.35 3.63c-1.371 1.086-1.474 3.352-.322 4.63.662.707 1.728.896 2.632.598-.082-1.443.631-3.047 2.059-3.568-.296-.415-.646-.793-.883-1.25-.203-.48-.77-.567-1.211-.708-.752-.175-1.641-.207-2.275.298zm4.442 2.656c-.588.281-.938.881-1.104 1.49-.226.715-.166 1.568.35 2.149.806.942 2.035 1.444 3.229 1.655-.423-1.739-.299-3.538-.14-5.301-.754-.204-1.603-.346-2.335.007zm23.577 2.419c-.424.147-.667.563-.798.967-.24.685-.184 1.42-.166 2.132.126 1.194.348 2.381.698 3.53.159.151.412.118.609.191.46.082.838.367 1.258.544 1.371-.761 2.741-1.656 3.684-2.938.488-.605.348-1.457-.021-2.084-1.02-1.781-3.252-2.814-5.264-2.342zm-28.735 2.498c-.247.687.007 1.414-.097 2.119-.155.901.196 1.897.837 2.522 1.456-.3 2.95-.167 4.401.085-.831-.339-1.455-1.004-2.032-1.667-.682-.816-1.135-1.932-.862-2.999.122-.564.536-.986.868-1.435a5.268 5.268 0 0 1-2.375-.142c-.349.444-.555.987-.74 1.517zm21.704-.81c-1.638.552-2.892 2.16-2.965 3.895-.039.616.462 1.081.924 1.403 1.13.735 2.465 1.047 3.766 1.326.635.102 1.272.267 1.919.241.241-.617.711-1.114 1.262-1.47-.302-.859-.693-1.685-1.099-2.499-.516-.96-1.043-1.954-1.877-2.679-.516-.483-1.304-.394-1.93-.217zm-18.605 1.406c-.066.736.352 1.403.801 1.948.608.649 1.268 1.401 2.21 1.5.941.127 1.838-.251 2.627-.724 0-.35-.265-.617-.397-.921-.179-.306-.251-.667-.452-.956-1.503-.361-3.057-.876-4.144-2.033-.359.287-.626.72-.645 1.186zm-20.547 2.333c-.407.126-.875.26-1.124.634-.21.695.029 1.422.295 2.069.573 1.349 1.371 2.593 2.255 3.756.546-.052 1.093 0 1.634.081.708-1.108 1.424-2.279 1.598-3.609.097-.754-.397-1.413-.931-1.884-1.005-.867-2.407-1.367-3.727-1.047zm26.399 1.331c-.916.573-2.022.846-3.097.67 1.048.249 2.246.54 2.875 1.501.646.964.521 2.2.247 3.268-.457 1.602-1.243 3.09-2.144 4.481-.18.295-.464.563-.438.938.367-.226.574-.622.869-.924.591-.705 1.281-1.312 1.985-1.897.55-2.107 1.074-4.225 1.696-6.312.206-.37-.24-.555-.453-.768-.417-.321-.735-.742-1.098-1.115-.161-.08-.3.107-.442.158zm-9.694-.046c-.416.841-1.061 1.545-1.757 2.164-.182.111-.043.325-.004.473.564 1.478 1.097 2.969 1.677 4.44.391.607.894 1.137 1.298 1.738.328.411.55.91.946 1.263-.061-.278-.193-.53-.318-.782-.743-1.533-1.459-3.079-2.175-4.625-.378-.834-.602-1.834-.229-2.708.199-.505.636-.85 1.059-1.161-.161-.269-.279-.569-.497-.802zm32.738 2.334c-.245.125-.064.41-.02.598.27.737.269 1.549.112 2.313a16.753 16.753 0 0 0 3.737 2.252c.572.238 1.198.457 1.827.34.351-.055.543-.407.61-.724.234-1.609.309-3.304-.242-4.861-.279-.8-.957-1.575-1.872-1.545-1.525.017-2.918.797-4.152 1.627zM59.7 24.409c.426 2.428-.066 5.175-1.903 6.932.248.45.503.898.695 1.375.686-.375 1.334-.825 2.049-1.147 1.052 1.709 1.126 3.792.961 5.735a9.42 9.42 0 0 0 2.223-3.25c.141-.25-.217-.333-.355-.457-1.563-.994-2.845-2.713-2.753-4.638.002-1.168.694-2.395 1.853-2.753 1.619-.531 3.313-.801 5.003-.995-.012-.06-.034-.178-.047-.238-2.144-.279-4.376-.671-6.193-1.92-.497.468-.968.966-1.533 1.356zm10.041-1.178c-.7.295-1.214.964-1.331 1.714-.296 1.661.9 3.427 2.537 3.811.48.068.997.075 1.445-.138.762-.35 1.259-1.173 1.271-2.005.079-1.15-.536-2.282-1.447-2.959-.701-.501-1.649-.738-2.475-.423zm-27.734 1.157c-.398.68-.113 1.497.182 2.16.814 1.729 1.588 3.481 2.467 5.179 1.147-.44 2.402-.103 3.402.531.97-1.504 1.908-3.062 2.4-4.796.205-.801.352-1.709-.07-2.467-.259-.497-.813-.712-1.311-.89-1.517-.497-3.115-.819-4.718-.721-.851.075-1.829.25-2.352 1.004zm12.205-.128c-.46 1.759-.996 3.498-1.397 5.273.244-.079.483-.165.724-.249.365-1.562.896-3.075 1.35-4.61-.126-.24-.436-.322-.677-.414zm-35.336.942c-.841 1.133-.883 2.717-.343 3.989.334.672 1.114.941 1.806 1.062 1.392.202 2.805.028 4.174-.242-.043-.609.177-1.175.395-1.729-1.108-1.22-2.229-2.456-3.585-3.408-.324-.207-.66-.438-1.053-.473-.579-.035-1.055.377-1.394.801zm19.267.062c.091.432.226.854.343 1.278.06.149.066.367.246.432.423.208.816.465 1.205.729-.311-.913-.674-1.809-1.001-2.716a10.79 10.79 0 0 1-.793.277zm17.612-.254a.184.184 0 0 0 .256.25c.216-.154-.102-.398-.256-.25zm-.707 2.448c-.238.516-.339 1.089-.458 1.643 1.06.033 2.002.642 2.646 1.454 1.47-1.431 1.859-3.638 1.608-5.606-1.535.275-2.898 1.253-3.796 2.509zm-23.38-1.09a6.32 6.32 0 0 0-1.811 2.305c.607.705 1.086 1.523 1.261 2.448.678.278 1.382.48 2.089.671.411.087.827.241 1.255.18.152-1.111.717-2.104 1.073-3.146-.46-1.029-1.057-2.086-2.028-2.71-.58-.391-1.337-.151-1.839.252zm30.946.786c-1.112.506-1.271 1.983-.915 3.022.464 1.336 1.562 2.378 2.809 3.001.664.34 1.514.244 2.064-.269 1.181-1.026 1.758-2.55 2.22-4.004.155-.299-.152-.487-.315-.688-.523-.584-.799-1.335-.992-2.083-1.644.213-3.307.452-4.871 1.021zm-25.121.617c-.446.181-.645.661-.867 1.053-.83 1.62-1.565 3.392-1.472 5.246.025.896.5 1.835 1.379 2.156 1.795.693 3.78.368 5.592-.086-.048-1.042.175-2.111.752-2.99.229-.253-.054-.516-.183-.735-1.003-1.453-2.045-2.924-3.439-4.029-.502-.37-1.103-.795-1.762-.615zm-11.076.555c-.774.227-1.101 1.128-.967 1.867.233 1.371 1.296 2.581 2.627 2.986.556.116 1.237.143 1.671-.289.5-.448.546-1.188.414-1.807a4 4 0 0 0-2.098-2.562 2.386 2.386 0 0 0-1.647-.195zm45.608 1.353c-.462.047-.93.022-1.389-.032-.382 1.439-.591 2.943-.49 4.434.079.663.206 1.382.691 1.879.302.325.769.411 1.193.407 1.465-.05 2.947-.296 4.282-.923.524-.264 1.056-.613 1.347-1.139.316-.62-.102-1.291-.524-1.738-1.052-1.07-2.167-2.074-3.232-3.129-.152-.123-.278-.315-.481-.349-.443.244-.883.528-1.397.59zm-2.399-.368a11.109 11.109 0 0 1-1.421 3.156c-.485.708-1.105 1.39-1.939 1.67a17.358 17.358 0 0 1-.235 3.211c1.198-.475 2.28-1.228 3.516-1.628-.639-2.11-.305-4.367.222-6.463l-.143.054zm-15.862.88c-1.401.479-2.476 1.569-3.447 2.64-.285.367-.644.696-.843 1.118.104.441.307.854.382 1.304.166.69.055 1.399.06 2.098 1.733.358 3.463.804 5.239.887.551.082 1.141-.021 1.592-.36.762-.564 1.172-1.5 1.255-2.427.137-1.721-.666-3.39-1.795-4.644-.595-.687-1.595-.922-2.443-.616zm-28.849 1.882c-1.013.569-2.016 1.176-2.891 1.947-.538.465-.473 1.281-.263 1.893.521 1.538 1.972 2.578 3.487 3.005.454.133 1.021.213 1.397-.141.53-.483.639-1.245.687-1.924.021-.963.029-1.938-.17-2.887-.008-.189-.201-.257-.333-.344a4.57 4.57 0 0 1-1.504-1.407c-.067-.163-.256-.264-.41-.142zm7.145.348c.69.417 1.413.81 2.164 1.107.004-.188.013-.375.026-.562-.739-.143-1.474-.307-2.19-.545zm13.18.08c-1.163.284-1.967 1.394-2.133 2.542-.317 1.721.596 3.706 2.275 4.349 1.082.433 2.392-.034 3.02-.996 1.039-1.5.779-3.686-.481-4.979-.669-.717-1.701-1.156-2.681-.916zm13.601 1.17c.001.762.199 1.554.015 2.323-.217 1.27-1.001 2.525-2.24 3.006-.775.316-1.621.129-2.43.109-.488.484-1.022.926-1.461 1.458.992.778 2.014 1.578 2.664 2.679.247.367.318.813.525 1.2-.037-1.59.999-2.99 2.157-3.985.751-.631 1.55-1.219 2.231-1.926.463-1.853.54-3.896-.173-5.698-.444.253-.886.516-1.288.834zm-28-.702c-.367.663-1.053 1.129-1.814 1.182.108.803.367 1.579.599 2.354.397 1.077.802 2.222 1.663 3.023.404.408 1.041.418 1.525.152 1.247-.579 2.545-1.375 3.109-2.691-.661-.402-1.231-.995-1.458-1.749-.104-.211-.077-.523-.315-.641-.844-.458-1.703-.885-2.558-1.321-.243-.119-.472-.295-.751-.309zm33.789 1.296c-.875 2.366-2.748 4.167-4.604 5.796-.887.764-1.896 1.429-2.539 2.433-.72 1.039-.956 2.458-.392 3.617.452.994 1.444 1.584 2.405 2.008 1.03.457 2.235.372 3.25-.09 1.62-.717 2.995-1.86 4.392-2.929 1.655-1.331 3.771-2.011 5.888-2.003l-.156-.183a5.999 5.999 0 0 0-4.038-1.179c-.688.015-1.358.315-2.049.231-.485-.104-.511-.728-.229-1.049 1.078-1.444 2.485-2.619 3.502-4.112l.056-.25c-1.604.417-2.958 1.443-4.478 2.066-.412.202-.858-.253-.707-.666.272-1.2.496-2.431.385-3.667-.228-.019-.458-.046-.686-.023zm-36.4 2.179c.051.963-.124 1.995-.723 2.777-.491.625-1.352.834-2.11.672-1.403-.309-2.743-1.032-3.653-2.16-.208-.307-.588-.373-.919-.465a.924.924 0 0 0 .217.467c.872 1.147 1.954 2.109 2.903 3.188.201.224.339.567.158.847-.397.267-.895.183-1.345.232-1.021.094-2.045.286-2.992.69-.291.137-.616.266-.795.551.697.04 1.407-.036 2.093.125 2.583.508 4.858 1.93 6.998 3.398.996.718 2.179 1.301 3.437 1.25.755-.01 1.496-.309 2.075-.789.898-.733 1.211-1.938 1.339-3.042.151-1.422-.661-2.72-1.642-3.672-.681.256-1.48.417-2.144.018-1.058-.647-1.631-1.821-2.07-2.936-.158-.442-.377-.94-.827-1.151zm8.625.866c-.335.586-.682 1.179-1.194 1.632-.445.468-1.029.758-1.518 1.169.96.911 1.65 2.175 1.699 3.515.066 1.047-.256 2.057-.612 3.026.263.353.698.642 1.097.844.56-.234 1.098-.526 1.675-.717-.268-.448-.73-.746-.998-1.201-.914-1.269-1.441-2.904-1.092-4.461.253-1.009 1.128-1.695 2.025-2.121 1.427-.692 2.99-1.029 4.539-1.32-.062-.201-.123-.401-.192-.599-1.768.403-3.639.695-5.429.233zm12.649.933c-.089.195-.028.412.196.466.768.386 1.483.863 2.227 1.29.3-.398.751-.662 1.026-1.077-1.161-.172-2.291-.523-3.449-.679zM38.27 39.886c-.632.333-1.338.783-1.475 1.544a4.586 4.586 0 0 0 .027 1.585c.491 1.979 2.066 3.656 4.021 4.245.438.112.931.25 1.352.004.831-.438 1.229-1.367 1.554-2.2.573-1.578.81-3.253.974-4.917a5.589 5.589 0 0 1-1.751-1.58c-1.614.222-3.243.579-4.702 1.319zm10.546-.554c-.423.462-.964.829-1.576.982-.162.062-.371.039-.497.173.01.771.009 1.545.103 2.313.127 1.547.283 3.141.972 4.557.28.61.93.943 1.564 1.058 2.251.428 4.664-.988 5.513-3.094.275-.85-.303-1.661-.816-2.287-1.062-1.228-2.447-2.123-3.829-2.952-.471-.261-.924-.568-1.434-.75zm-3.202 1.098c-.033.927-.315 1.837-.223 2.77.429 6.102.902 12.208 1.789 18.265.094-.457.259-.905.266-1.373-.336-4.123-.462-8.263-.545-12.397-.915-2.277-1.031-4.776-1.078-7.204a56.395 56.395 0 0 1-.209-.061zm7.866 8.027c.141.026.335.21.458.051.718-.721 1.504-1.368 2.313-1.983a3.433 3.433 0 0 1-.329-1.249c-.439 1.3-1.339 2.384-2.442 3.181zm-9.426-1.817a3.713 3.713 0 0 1-1.611 1.561c1.535 3.004 2.463 6.279 3.272 9.535a348.41 348.41 0 0 1-1.101-12.197c-.245.333-.331.755-.56 1.101zm6.804 7.633c-1.862 3.497-3.003 7.357-3.509 11.278-.264 1.255-.443 2.525-.609 3.797-.604 4.688-.979 9.4-1.358 14.11-.153 2.492-.405 4.981-.479 7.479.178-.006.355 0 .534.017.293-6.481.888-12.944 1.677-19.383.476-3.416.817-6.864 1.68-10.213.644-2.563 1.586-5.062 2.878-7.371 1.361-2.425 3.169-4.641 5.474-6.224a38.413 38.413 0 0 0-.353-.429c-2.553 1.733-4.468 4.257-5.935 6.939zm-16.472-6.508c.288.212.659.706.999.291a6.423 6.423 0 0 0-.724-.561l-.275.27zm.492 1.878c-1.064 1.038-1.618 2.452-2.107 3.824-.111.338-.275.67-.278 1.032 1.714.604 3.529 1.098 5.362.898 1.437-.121 2.837-.706 3.887-1.701a33.852 33.852 0 0 0-2.305-5.834c-.116-.281-.431-.548-.74-.363-1.371.508-2.741 1.133-3.819 2.144zm5.773-1.455c1.501 3.27 2.527 6.73 3.452 10.197.74 2.854 1.432 5.725 1.97 8.623.256-.475.222-1.04.119-1.553a87.664 87.664 0 0 0-1.111-6.211c-.82-3.642-1.801-7.29-3.486-10.639-.125-.408-.616-.317-.944-.417zm7.235.665c-.024 1.932.124 3.858.133 5.791.451.197.922.366 1.412.44a23.406 23.406 0 0 1 3.459-5.425c.088-.102.154-.216.199-.343-.452-.131-.929-.314-1.391-.119a4.96 4.96 0 0 1-3.812-.344zm7.567 1.536c-1.206 1.241-2.208 2.669-3.052 4.177-.208.377-.437.747-.558 1.162 2.609.392 5.385.562 7.873-.486.242-.048.077-.305.023-.435-.911-1.868-2.408-3.508-4.286-4.418zm-7.33 5.292c.017.685.05 1.371.098 2.057.169-.089.173-.304.248-.455.141-.45.392-.862.48-1.327-.275-.096-.553-.183-.826-.275zm.711 9.986c-.101 1.409-.577 2.806-.362 4.229.285 2.759.802 5.486 1.382 8.195 1.131 5.266 2.553 10.465 4.066 15.631.456 1.611 1.002 3.195 1.436 4.81.368.028.691-.184 1.029-.296-.176-.697-.472-1.358-.677-2.048-1.052-3.16-1.919-6.379-2.725-9.609-1.564-6.392-2.825-12.853-3.891-19.345-.082-.522-.203-1.041-.213-1.571l-.045.004zm-.714 8.575c.08 7.955.588 15.896 1.022 23.837.362.245.758.438 1.169.592-1.066-6.907-1.429-13.905-1.543-20.886-.084-1.198-.482-2.349-.581-3.544l-.067.001z"></path></g><!----></svg>