<svg data-v-423bf9ae="" xmlns="http://www.w3.org/2000/svg" viewBox="0 0 383.6842525542731 60" class="font"><!----><!----><!----><g data-v-423bf9ae="" id="b7507151-2535-4c3b-92f9-806582f3330b" fill="white" transform="matrix(4.784689373648866,0,0,4.784689373648866,3.062207051451196,-20.38277878054697)"><path d="M-0.50 14.01L-0.50 14.01Q-0.64 14.01-0.64 13.85L-0.64 13.85L-0.64 13.85Q-0.64 13.75-0.59 13.71L-0.59 13.71L-0.59 13.71Q-0.53 13.66-0.42 13.62L-0.42 13.62L-0.42 13.62Q0.24 13.43 0.57 13.13L0.57 13.13L0.57 13.13Q0.90 12.82 1.20 12.29L1.20 12.29L5.53 4.48L5.53 4.48Q5.57 4.41 5.64 4.37L5.64 4.37L5.64 4.37Q5.71 4.33 5.77 4.34L5.77 4.34L6.31 4.41L6.31 4.41Q6.41 4.45 6.41 4.56L6.41 4.56L7.18 13.19L7.18 13.19Q7.22 13.62 7.63 13.62L7.63 13.62L7.88 13.62L7.88 13.62Q8.02 13.62 8.02 13.78L8.02 13.78L8.02 13.78Q8.02 13.89 7.96 13.95L7.96 13.95L7.96 13.95Q7.90 14.01 7.80 14.01L7.80 14.01L4.90 14.01L4.90 14.01Q4.76 14.01 4.76 13.87L4.76 13.87L4.76 13.87Q4.76 13.79 4.82 13.71L4.82 13.71L4.82 13.71Q4.87 13.62 4.97 13.62L4.97 13.62L5.42 13.62L5.42 13.62Q5.64 13.62 5.75 13.49L5.75 13.49L5.75 13.49Q5.87 13.36 5.85 13.12L5.85 13.12L5.63 10.67L2.44 10.67L1.64 12.08L1.64 12.08Q1.34 12.61 1.34 12.96L1.34 12.96L1.34 12.96Q1.34 13.27 1.53 13.45L1.53 13.45L1.53 13.45Q1.72 13.62 2.07 13.62L2.07 13.62L2.07 13.62Q2.13 13.62 2.15 13.65L2.15 13.65L2.15 13.65Q2.17 13.68 2.17 13.75L2.17 13.75L2.17 13.75Q2.17 14.01 1.97 14.01L1.97 14.01L-0.50 14.01ZM5.22 5.70L2.65 10.32L5.60 10.32L5.22 5.70ZM8.20 16.80L8.20 16.80Q8.09 16.80 8.09 16.67L8.09 16.67L8.09 16.67Q8.09 16.55 8.20 16.55L8.20 16.55L8.55 16.55L8.55 16.55Q8.72 16.55 8.83 16.46L8.83 16.46L8.83 16.46Q8.95 16.37 8.97 16.21L8.97 16.21L10.46 9.73L10.46 9.73Q10.47 9.67 10.53 9.43L10.53 9.43L10.53 9.43Q10.58 9.18 10.58 8.99L10.58 8.99L10.58 8.99Q10.58 8.61 10.33 8.61L10.33 8.61L10.33 8.61Q10.04 8.61 9.67 9.12L9.67 9.12L9.67 9.12Q9.31 9.63 9.04 10.35L9.04 10.35L8.88 10.30L8.88 10.30Q9.31 9.28 9.73 8.76L9.73 8.76L9.73 8.76Q10.15 8.23 10.74 8.23L10.74 8.23L10.74 8.23Q11.13 8.23 11.30 8.45L11.30 8.45L11.30 8.45Q11.48 8.67 11.48 9.02L11.48 9.02L11.48 9.02Q11.48 9.20 11.44 9.41L11.44 9.41L11.44 9.41Q11.55 9.21 11.80 8.94L11.80 8.94L11.80 8.94Q12.05 8.67 12.44 8.45L12.44 8.45L12.44 8.45Q12.82 8.23 13.24 8.23L13.24 8.23L13.24 8.23Q13.90 8.23 14.36 8.76L14.36 8.76L14.36 8.76Q14.83 9.28 14.83 10.23L14.83 10.23L14.83 10.23Q14.83 11.14 14.39 12.03L14.39 12.03L14.39 12.03Q13.96 12.91 13.24 13.47L13.24 13.47L13.24 13.47Q12.52 14.03 11.73 14.03L11.73 14.03L11.73 14.03Q11.28 14.03 11.02 13.85L11.02 13.85L11.02 13.85Q10.75 13.66 10.54 13.33L10.54 13.33L9.90 16.13L9.90 16.13Q9.88 16.17 9.88 16.25L9.88 16.25L9.88 16.25Q9.88 16.39 9.98 16.47L9.98 16.47L9.98 16.47Q10.07 16.55 10.23 16.55L10.23 16.55L10.71 16.55L10.71 16.55Q10.82 16.55 10.82 16.67L10.82 16.67L10.82 16.67Q10.82 16.80 10.71 16.80L10.71 16.80L8.20 16.80ZM11.70 13.79L11.70 13.79Q12.39 13.79 12.88 13.15L12.88 13.15L12.88 13.15Q13.37 12.52 13.62 11.59L13.62 11.59L13.62 11.59Q13.87 10.65 13.87 9.83L13.87 9.83L13.87 9.83Q13.87 9.14 13.67 8.85L13.67 8.85L13.67 8.85Q13.47 8.55 13.03 8.55L13.03 8.55L13.03 8.55Q12.47 8.55 12.03 8.98L12.03 8.98L12.03 8.98Q11.58 9.41 11.31 10.01L11.31 10.01L10.67 12.81L10.67 12.81Q10.75 13.29 11.02 13.54L11.02 13.54L11.02 13.54Q11.28 13.79 11.70 13.79L11.70 13.79ZM16.38 14.01L16.38 14.01Q16.28 14.01 16.23 13.95L16.23 13.95L16.23 13.95Q16.17 13.89 16.20 13.78L16.20 13.78L16.53 12.39L16.53 12.39Q16.88 10.93 17.04 10.21L17.04 10.21L17.04 10.21Q17.19 9.49 17.19 9.10L17.19 9.10L17.19 9.10Q17.19 8.65 16.97 8.65L16.97 8.65L16.97 8.65Q16.67 8.65 16.32 9.14L16.32 9.14L16.32 9.14Q15.96 9.62 15.68 10.35L15.68 10.35L15.51 10.30L15.51 10.30Q15.93 9.32 16.35 8.78L16.35 8.78L16.35 8.78Q16.77 8.23 17.36 8.23L17.36 8.23L17.36 8.23Q18.14 8.23 18.14 9.04L18.14 9.04L18.14 9.04Q18.14 9.30 18.05 9.72L18.05 9.72L18.05 9.72Q18.06 9.69 18.27 9.30L18.27 9.30L18.27 9.30Q18.48 8.92 18.93 8.58L18.93 8.58L18.93 8.58Q19.38 8.23 19.88 8.23L19.88 8.23L19.88 8.23Q20.24 8.25 20.43 8.41L20.43 8.41L20.43 8.41Q20.61 8.58 20.61 8.86L20.61 8.86L20.61 8.86Q20.61 8.93 20.58 9.10L20.58 9.10L20.58 9.10Q20.52 9.41 20.32 9.62L20.32 9.62L20.32 9.62Q20.12 9.83 19.85 9.83L19.85 9.83L19.85 9.83Q19.68 9.83 19.58 9.72L19.58 9.72L19.58 9.72Q19.47 9.62 19.47 9.41L19.47 9.41L19.47 9.41Q19.47 9.25 19.52 9.16L19.52 9.16L19.52 9.16Q19.57 9.07 19.67 8.97L19.67 8.97L19.67 8.97Q19.80 8.82 19.80 8.72L19.80 8.72L19.80 8.72Q19.80 8.55 19.59 8.55L19.59 8.55L19.59 8.55Q19.31 8.55 18.96 8.81L18.96 8.81L18.96 8.81Q18.61 9.07 18.28 9.60L18.28 9.60L18.28 9.60Q17.96 10.14 17.78 10.91L17.78 10.91L17.12 13.83L17.12 13.83Q17.08 14.01 16.90 14.01L16.90 14.01L16.38 14.01ZM23.13 6.41L23.13 6.41Q22.95 6.41 22.82 6.27L22.82 6.27L22.82 6.27Q22.69 6.13 22.69 5.92L22.69 5.92L22.69 5.92Q22.69 5.63 22.93 5.36L22.93 5.36L22.93 5.36Q23.16 5.08 23.44 5.08L23.44 5.08L23.44 5.08Q23.65 5.08 23.79 5.24L23.79 5.24L23.79 5.24Q23.93 5.39 23.93 5.60L23.93 5.60L23.93 5.60Q23.93 5.88 23.67 6.15L23.67 6.15L23.67 6.15Q23.42 6.41 23.13 6.41L23.13 6.41ZM21.90 14.15L21.90 14.15Q21.55 14.15 21.29 13.94L21.29 13.94L21.29 13.94Q21.03 13.72 21.03 13.29L21.03 13.29L21.03 13.29Q21.03 12.92 21.20 12.39L21.20 12.39L21.20 12.39Q21.36 11.86 21.70 10.95L21.70 10.95L21.70 10.95Q21.74 10.82 21.92 10.34L21.92 10.34L21.92 10.34Q22.09 9.86 22.18 9.54L22.18 9.54L22.18 9.54Q22.26 9.23 22.26 9.04L22.26 9.04L22.26 9.04Q22.26 8.88 22.19 8.76L22.19 8.76L22.19 8.76Q22.12 8.65 21.98 8.65L21.98 8.65L21.98 8.65Q21.67 8.65 21.32 9.11L21.32 9.11L21.32 9.11Q20.97 9.58 20.66 10.35L20.66 10.35L20.50 10.30L20.50 10.30Q20.92 9.35 21.35 8.79L21.35 8.79L21.35 8.79Q21.78 8.23 22.39 8.23L22.39 8.23L22.39 8.23Q22.75 8.23 22.97 8.44L22.97 8.44L22.97 8.44Q23.20 8.64 23.20 9.04L23.20 9.04L23.20 9.04Q23.20 9.39 23.04 9.92L23.04 9.92L23.04 9.92Q22.88 10.44 22.58 11.23L22.58 11.23L22.58 11.23Q22.27 12.07 22.13 12.51L22.13 12.51L22.13 12.51Q21.99 12.95 21.99 13.26L21.99 13.26L21.99 13.26Q21.99 13.71 22.30 13.71L22.30 13.71L22.30 13.71Q22.62 13.71 22.96 13.24L22.96 13.24L22.96 13.24Q23.30 12.77 23.60 12.03L23.60 12.03L23.76 12.07L23.76 12.07Q23.35 13.05 22.93 13.60L22.93 13.60L22.93 13.60Q22.51 14.15 21.90 14.15L21.90 14.15ZM27.51 4.75L25.65 13.03L25.65 13.03Q25.61 13.20 25.61 13.31L25.61 13.31L25.61 13.31Q25.61 13.71 25.96 13.71L25.96 13.71L25.96 13.71Q26.56 13.71 27.26 12.03L27.26 12.03L27.41 12.07L27.41 12.07Q26.98 13.06 26.57 13.61L26.57 13.61L26.57 13.61Q26.17 14.15 25.55 14.15L25.55 14.15L25.55 14.15Q25.20 14.15 24.95 13.97L24.95 13.97L24.95 13.97Q24.70 13.78 24.70 13.34L24.70 13.34L24.70 13.34Q24.70 13.19 24.74 12.98L24.74 12.98L26.52 5.19L26.52 5.19Q26.53 5.14 26.53 5.05L26.53 5.05L26.53 5.05Q26.53 4.80 26.33 4.75L26.33 4.75L26.33 4.75Q26.12 4.70 25.75 4.70L25.75 4.70L25.75 4.70Q25.56 4.70 25.56 4.56L25.56 4.56L25.56 4.56Q25.56 4.48 25.61 4.45L25.61 4.45L25.61 4.45Q25.65 4.41 25.75 4.41L25.75 4.41L27.29 4.41L27.29 4.41Q27.52 4.41 27.52 4.63L27.52 4.63L27.52 4.63Q27.52 4.70 27.51 4.75L27.51 4.75ZM30.34 7.38L30.34 7.38Q30.31 7.38 30.28 7.15L30.28 7.15L30.28 7.15Q30.25 6.93 30.25 6.61L30.25 6.61L30.25 6.61Q30.25 5.61 30.42 4.93L30.42 4.93L30.42 4.93Q30.48 4.66 30.67 4.46L30.67 4.46L30.67 4.46Q30.87 4.26 31.07 4.26L31.07 4.26L31.07 4.26Q31.23 4.26 31.35 4.42L31.35 4.42L31.35 4.42Q31.47 4.58 31.47 4.79L31.47 4.79L31.47 4.79Q31.47 4.89 31.46 4.93L31.46 4.93L31.46 4.93Q31.36 5.38 31.12 5.95L31.12 5.95L31.12 5.95Q30.87 6.52 30.64 6.95L30.64 6.95L30.64 6.95Q30.41 7.38 30.34 7.38L30.34 7.38ZM33.18 14.14L33.18 14.14Q32.58 14.14 32.09 13.83L32.09 13.83L32.09 13.83Q31.60 13.51 31.60 13.02L31.60 13.02L31.60 13.02Q31.60 12.80 31.71 12.68L31.71 12.68L31.71 12.68Q31.82 12.56 32.00 12.56L32.00 12.56L32.00 12.56Q32.17 12.56 32.29 12.65L32.29 12.65L32.29 12.65Q32.41 12.74 32.41 12.92L32.41 12.92L32.41 12.92Q32.41 13.02 32.35 13.17L32.35 13.17L32.35 13.17Q32.28 13.33 32.28 13.41L32.28 13.41L32.28 13.41Q32.28 13.64 32.56 13.74L32.56 13.74L32.56 13.74Q32.83 13.85 33.18 13.85L33.18 13.85L33.18 13.85Q33.80 13.85 34.30 13.51L34.30 13.51L34.30 13.51Q34.80 13.17 34.80 12.54L34.80 12.54L34.80 12.54Q34.80 12.07 34.52 11.85L34.52 11.85L34.52 11.85Q34.23 11.63 33.63 11.42L33.63 11.42L33.63 11.42Q33.21 11.28 32.95 11.16L32.95 11.16L32.95 11.16Q32.69 11.03 32.52 10.78L32.52 10.78L32.52 10.78Q32.34 10.53 32.34 10.14L32.34 10.14L32.34 10.14Q32.34 9.62 32.63 9.18L32.63 9.18L32.63 9.18Q32.93 8.75 33.39 8.49L33.39 8.49L33.39 8.49Q33.85 8.23 34.34 8.23L34.34 8.23L34.34 8.23Q34.90 8.23 35.36 8.55L35.36 8.55L35.36 8.55Q35.81 8.88 35.81 9.35L35.81 9.35L35.81 9.35Q35.81 9.59 35.70 9.71L35.70 9.71L35.70 9.71Q35.59 9.83 35.41 9.83L35.41 9.83L35.41 9.83Q35.24 9.83 35.12 9.74L35.12 9.74L35.12 9.74Q35.00 9.66 35.00 9.49L35.00 9.49L35.00 9.49Q35.00 9.39 35.06 9.24L35.06 9.24L35.06 9.24Q35.13 9.09 35.13 9.00L35.13 9.00L35.13 9.00Q35.13 8.76 34.87 8.63L34.87 8.63L34.87 8.63Q34.62 8.50 34.27 8.50L34.27 8.50L34.27 8.50Q33.71 8.50 33.36 8.84L33.36 8.84L33.36 8.84Q33.01 9.18 33.01 9.62L33.01 9.62L33.01 9.62Q33.01 10.00 33.27 10.17L33.27 10.17L33.27 10.17Q33.53 10.35 34.06 10.53L34.06 10.53L34.06 10.53Q34.51 10.68 34.79 10.82L34.79 10.82L34.79 10.82Q35.07 10.96 35.27 11.25L35.27 11.25L35.27 11.25Q35.46 11.54 35.46 12.00L35.46 12.00L35.46 12.00Q35.46 12.61 35.11 13.10L35.11 13.10L35.11 13.10Q34.76 13.59 34.24 13.87L34.24 13.87L34.24 13.87Q33.71 14.14 33.18 14.14L33.18 14.14ZM43.48 14.14L43.48 14.14Q42.56 14.14 41.85 13.67L41.85 13.67L41.85 13.67Q41.13 13.20 40.74 12.38L40.74 12.38L40.74 12.38Q40.35 11.55 40.35 10.50L40.35 10.50L40.35 10.50Q40.35 9.88 40.50 9.18L40.50 9.18L40.50 9.18Q40.81 7.85 41.63 6.72L41.63 6.72L41.63 6.72Q42.45 5.59 43.54 4.92L43.54 4.92L43.54 4.92Q44.63 4.26 45.75 4.26L45.75 4.26L45.75 4.26Q46.69 4.26 47.45 4.75L47.45 4.75L47.45 4.75Q47.56 4.80 47.67 4.80L47.67 4.80L47.67 4.80Q47.91 4.80 48.19 4.61L48.19 4.61L48.19 4.61Q48.27 4.52 48.34 4.50L48.34 4.50L48.34 4.50Q48.40 4.48 48.50 4.48L48.50 4.48L48.50 4.48Q48.59 4.48 48.62 4.52L48.62 4.52L48.62 4.52Q48.64 4.55 48.62 4.66L48.62 4.66L48.19 6.75L48.19 6.75Q48.17 6.83 48.12 6.88L48.12 6.88L48.12 6.88Q48.06 6.93 48.01 6.93L48.01 6.93L48.01 6.93Q47.94 6.93 47.90 6.90L47.90 6.90L47.90 6.90Q47.87 6.86 47.85 6.73L47.85 6.73L47.85 6.73Q47.82 6.48 47.59 5.90L47.59 5.90L47.59 5.90Q47.35 5.32 47.10 5.07L47.10 5.07L47.10 5.07Q46.70 4.61 45.68 4.61L45.68 4.61L45.68 4.61Q44.52 4.61 43.55 5.71L43.55 5.71L43.55 5.71Q42.59 6.82 42.04 9.18L42.04 9.18L42.04 9.18Q41.76 10.43 41.76 11.38L41.76 11.38L41.76 11.38Q41.76 12.63 42.25 13.22L42.25 13.22L42.25 13.22Q42.73 13.82 43.57 13.82L43.57 13.82L43.57 13.82Q44.63 13.82 45.51 12.89L45.51 12.89L45.51 12.89Q45.77 12.59 45.92 12.07L45.92 12.07L46.23 10.68L46.23 10.61L46.23 10.61Q46.23 10.47 46.17 10.39L46.17 10.39L46.17 10.39Q46.10 10.30 45.98 10.30L45.98 10.30L45.42 10.30L45.42 10.30Q45.36 10.30 45.32 10.26L45.32 10.26L45.32 10.26Q45.28 10.21 45.28 10.14L45.28 10.14L45.28 10.14Q45.28 10.04 45.34 9.99L45.34 9.99L45.34 9.99Q45.40 9.94 45.50 9.94L45.50 9.94L48.40 9.94L48.40 9.94Q48.55 9.94 48.55 10.05L48.55 10.05L48.55 10.05Q48.55 10.14 48.48 10.22L48.48 10.22L48.48 10.22Q48.41 10.30 48.31 10.30L48.31 10.30L47.95 10.30L47.95 10.30Q47.81 10.30 47.67 10.42L47.67 10.42L47.67 10.42Q47.53 10.54 47.50 10.68L47.50 10.68L46.96 13.15L46.82 13.92L46.82 13.92Q46.79 14.00 46.73 14.07L46.73 14.07L46.73 14.07Q46.66 14.14 46.59 14.14L46.59 14.14L46.59 14.14Q46.47 14.14 46.42 14.00L46.42 14.00L46.24 12.96L46.20 12.96L46.20 12.96Q45.50 13.55 44.85 13.85L44.85 13.85L44.85 13.85Q44.20 14.14 43.48 14.14L43.48 14.14ZM50.68 14.20L50.68 14.20Q50.30 14.20 49.91 14.01L49.91 14.01L49.91 14.01Q49.52 13.82 49.25 13.40L49.25 13.40L49.25 13.40Q48.97 12.98 48.97 12.31L48.97 12.31L48.97 12.31Q48.97 11.45 49.40 10.49L49.40 10.49L49.40 10.49Q49.83 9.53 50.52 8.88L50.52 8.88L50.52 8.88Q51.21 8.23 51.95 8.23L51.95 8.23L51.95 8.23Q52.35 8.23 52.67 8.45L52.67 8.45L52.67 8.45Q52.99 8.67 53.17 8.95L53.17 8.95L53.17 8.95Q53.21 9.00 53.27 9.00L53.27 9.00L53.27 9.00Q53.37 9.00 53.40 8.90L53.40 8.90L53.48 8.61L53.48 8.61Q53.52 8.43 53.70 8.43L53.70 8.43L54.15 8.43L54.15 8.43Q54.38 8.43 54.33 8.67L54.33 8.67L54.33 8.67Q53.30 12.84 53.30 13.34L53.30 13.34L53.30 13.34Q53.30 13.51 53.39 13.61L53.39 13.61L53.39 13.61Q53.48 13.71 53.62 13.71L53.62 13.71L53.62 13.71Q53.91 13.71 54.25 13.25L54.25 13.25L54.25 13.25Q54.59 12.80 54.91 12.03L54.91 12.03L55.06 12.07L55.06 12.07Q54.61 13.13 54.20 13.64L54.20 13.64L54.20 13.64Q53.79 14.15 53.13 14.15L53.13 14.15L53.13 14.15Q52.72 14.15 52.58 13.96L52.58 13.96L52.58 13.96Q52.44 13.76 52.36 13.37L52.36 13.37L52.36 13.37Q52.35 13.22 52.25 13.33L52.25 13.33L52.25 13.33Q51.83 13.75 51.47 13.97L51.47 13.97L51.47 13.97Q51.11 14.20 50.68 14.20L50.68 14.20ZM50.78 13.83L50.78 13.83Q51.45 13.83 51.87 13.38L51.87 13.38L51.87 13.38Q52.29 12.94 52.57 12.13L52.57 12.13L52.57 12.13Q52.85 11.33 53.16 9.90L53.16 9.90L53.16 9.90Q53.16 9.41 52.93 8.97L52.93 8.97L52.93 8.97Q52.70 8.54 52.21 8.54L52.21 8.54L52.21 8.54Q51.55 8.54 51.02 9.22L51.02 9.22L51.02 9.22Q50.50 9.90 50.20 10.89L50.20 10.89L50.20 10.89Q49.91 11.87 49.91 12.70L49.91 12.70L49.91 12.70Q49.91 13.26 50.10 13.55L50.10 13.55L50.10 13.55Q50.29 13.83 50.78 13.83L50.78 13.83ZM56.64 14.01L56.64 14.01Q56.55 14.01 56.49 13.95L56.49 13.95L56.49 13.95Q56.43 13.89 56.46 13.78L56.46 13.78L56.80 12.39L56.80 12.39Q57.15 10.93 57.30 10.21L57.30 10.21L57.30 10.21Q57.46 9.49 57.46 9.10L57.46 9.10L57.46 9.10Q57.46 8.65 57.23 8.65L57.23 8.65L57.23 8.65Q56.94 8.65 56.58 9.14L56.58 9.14L56.58 9.14Q56.22 9.62 55.94 10.35L55.94 10.35L55.78 10.30L55.78 10.30Q56.20 9.32 56.62 8.78L56.62 8.78L56.62 8.78Q57.04 8.23 57.62 8.23L57.62 8.23L57.62 8.23Q58.41 8.23 58.41 9.04L58.41 9.04L58.41 9.04Q58.41 9.30 58.31 9.72L58.31 9.72L58.31 9.72Q58.32 9.69 58.53 9.30L58.53 9.30L58.53 9.30Q58.74 8.92 59.19 8.58L59.19 8.58L59.19 8.58Q59.64 8.23 60.14 8.23L60.14 8.23L60.14 8.23Q60.51 8.25 60.69 8.41L60.69 8.41L60.69 8.41Q60.87 8.58 60.87 8.86L60.87 8.86L60.87 8.86Q60.87 8.93 60.84 9.10L60.84 9.10L60.84 9.10Q60.79 9.41 60.59 9.62L60.59 9.62L60.59 9.62Q60.38 9.83 60.12 9.83L60.12 9.83L60.12 9.83Q59.95 9.83 59.84 9.72L59.84 9.72L59.84 9.72Q59.74 9.62 59.74 9.41L59.74 9.41L59.74 9.41Q59.74 9.25 59.79 9.16L59.79 9.16L59.79 9.16Q59.84 9.07 59.93 8.97L59.93 8.97L59.93 8.97Q60.06 8.82 60.06 8.72L60.06 8.72L60.06 8.72Q60.06 8.55 59.85 8.55L59.85 8.55L59.85 8.55Q59.57 8.55 59.22 8.81L59.22 8.81L59.22 8.81Q58.87 9.07 58.55 9.60L58.55 9.60L58.55 9.60Q58.23 10.14 58.04 10.91L58.04 10.91L57.39 13.83L57.39 13.83Q57.34 14.01 57.16 14.01L57.16 14.01L56.64 14.01ZM62.44 14.20L62.44 14.20Q62.06 14.20 61.67 14.01L61.67 14.01L61.67 14.01Q61.28 13.82 61.01 13.40L61.01 13.40L61.01 13.40Q60.73 12.98 60.73 12.31L60.73 12.31L60.73 12.31Q60.73 11.45 61.16 10.49L61.16 10.49L61.16 10.49Q61.59 9.53 62.28 8.88L62.28 8.88L62.28 8.88Q62.97 8.23 63.71 8.23L63.71 8.23L63.71 8.23Q64.11 8.23 64.44 8.46L64.44 8.46L64.44 8.46Q64.76 8.69 64.96 8.99L64.96 8.99L65.02 9.02L65.02 9.02Q65.14 9.02 65.16 8.90L65.16 8.90L65.45 7.77L65.59 7.13L65.59 7.13Q65.95 5.49 66.04 5.19L66.04 5.19L66.04 5.19Q66.05 5.15 66.05 5.07L66.05 5.07L66.05 5.07Q66.05 4.82 65.86 4.76L65.86 4.76L65.86 4.76Q65.66 4.70 65.27 4.70L65.27 4.70L65.27 4.70Q65.07 4.70 65.07 4.56L65.07 4.56L65.07 4.56Q65.07 4.48 65.11 4.45L65.11 4.45L65.11 4.45Q65.16 4.41 65.27 4.41L65.27 4.41L66.81 4.41L66.81 4.41Q67.05 4.41 67.05 4.63L67.05 4.63L67.05 4.63Q67.05 4.70 67.03 4.75L67.03 4.75L66.40 7.41L66.07 8.82L66.07 8.82Q65.06 12.82 65.06 13.34L65.06 13.34L65.06 13.34Q65.06 13.51 65.15 13.61L65.15 13.61L65.15 13.61Q65.24 13.71 65.38 13.71L65.38 13.71L65.38 13.71Q65.67 13.71 66.01 13.25L66.01 13.25L66.01 13.25Q66.35 12.80 66.67 12.03L66.67 12.03L66.82 12.07L66.82 12.07Q66.37 13.13 65.96 13.64L65.96 13.64L65.96 13.64Q65.55 14.15 64.89 14.15L64.89 14.15L64.89 14.15Q64.48 14.15 64.34 13.96L64.34 13.96L64.34 13.96Q64.20 13.76 64.12 13.37L64.12 13.37L64.12 13.37Q64.11 13.22 64.01 13.33L64.01 13.33L64.01 13.33Q63.59 13.75 63.23 13.97L63.23 13.97L63.23 13.97Q62.87 14.20 62.44 14.20L62.44 14.20ZM62.54 13.83L62.54 13.83Q63.21 13.83 63.63 13.38L63.63 13.38L63.63 13.38Q64.05 12.94 64.33 12.13L64.33 12.13L64.33 12.13Q64.61 11.33 64.92 9.90L64.92 9.90L64.92 9.90Q64.92 9.41 64.69 8.97L64.69 8.97L64.69 8.97Q64.46 8.54 63.97 8.54L63.97 8.54L63.97 8.54Q63.31 8.54 62.78 9.22L62.78 9.22L62.78 9.22Q62.26 9.90 61.96 10.89L61.96 10.89L61.96 10.89Q61.67 11.87 61.67 12.70L61.67 12.70L61.67 12.70Q61.67 13.26 61.86 13.55L61.86 13.55L61.86 13.55Q62.05 13.83 62.54 13.83L62.54 13.83ZM69.47 14.14L69.47 14.14Q68.66 14.14 68.08 13.61L68.08 13.61L68.08 13.61Q67.51 13.08 67.51 12.08L67.51 12.08L67.51 12.08Q67.51 11.80 67.61 11.27L67.61 11.27L67.61 11.27Q67.82 10.36 68.33 9.67L68.33 9.67L68.33 9.67Q68.85 8.97 69.50 8.60L69.50 8.60L69.50 8.60Q70.14 8.23 70.71 8.23L70.71 8.23L70.71 8.23Q71.58 8.23 71.97 8.80L71.97 8.80L71.97 8.80Q72.35 9.37 72.35 10.12L72.35 10.12L72.35 10.12Q72.35 10.47 72.30 10.68L72.30 10.68L72.30 10.68Q72.23 11.02 71.97 11.02L71.97 11.02L69.33 11.02L69.33 11.02Q68.98 11.02 68.82 11.07L68.82 11.07L68.82 11.07Q68.66 11.12 68.61 11.31L68.61 11.31L68.61 11.31Q68.60 11.41 68.53 11.77L68.53 11.77L68.53 11.77Q68.46 12.14 68.46 12.45L68.46 12.45L68.46 12.45Q68.46 13.83 69.73 13.83L69.73 13.83L69.78 13.83L69.78 13.83Q70.20 13.82 70.64 13.57L70.64 13.57L70.64 13.57Q71.08 13.33 71.64 12.67L71.64 12.67L71.64 12.67Q71.69 12.61 71.79 12.61L71.79 12.61L71.79 12.61Q71.86 12.61 71.88 12.66L71.88 12.66L71.88 12.66Q71.90 12.70 71.85 12.78L71.85 12.78L71.85 12.78Q71.74 12.95 71.42 13.27L71.42 13.27L71.42 13.27Q71.11 13.58 70.59 13.86L70.59 13.86L70.59 13.86Q70.07 14.14 69.47 14.14L69.47 14.14ZM68.81 10.67L71.04 10.67L71.04 10.67Q71.23 10.67 71.27 10.63L71.27 10.63L71.27 10.63Q71.32 10.60 71.36 10.42L71.36 10.42L71.36 10.42Q71.46 10.02 71.46 9.53L71.46 9.53L71.46 9.53Q71.46 8.47 70.73 8.47L70.73 8.47L70.73 8.47Q70.20 8.47 69.67 9.02L69.67 9.02L69.67 9.02Q69.15 9.58 68.81 10.67L68.81 10.67ZM77.67 14.15L77.67 14.15Q77.31 14.15 77.06 13.94L77.06 13.94L77.06 13.94Q76.82 13.72 76.82 13.19L76.82 13.19L76.82 13.19Q76.82 12.78 76.94 12.31L76.94 12.31L76.94 12.31Q77.06 11.84 77.31 11.09L77.31 11.09L77.31 11.09Q77.50 10.49 77.61 10.10L77.61 10.10L77.61 10.10Q77.71 9.72 77.71 9.44L77.71 9.44L77.71 9.44Q77.71 8.83 77.14 8.83L77.14 8.83L77.14 8.83Q76.58 8.83 76.20 9.35L76.20 9.35L76.20 9.35Q75.81 9.87 75.55 10.67L75.55 10.67L75.55 10.67Q75.29 11.47 74.91 12.98L74.91 12.98L74.70 13.83L74.70 13.83Q74.66 14.01 74.48 14.01L74.48 14.01L73.92 14.01L73.92 14.01Q73.81 14.01 73.76 13.94L73.76 13.94L73.76 13.94Q73.71 13.87 73.74 13.78L73.74 13.78L73.74 13.78Q73.84 13.36 74.30 11.51L74.30 11.51L74.30 11.51Q74.55 10.54 74.68 9.98L74.68 9.98L74.68 9.98Q74.80 9.41 74.80 9.09L74.80 9.09L74.80 9.09Q74.80 8.64 74.52 8.64L74.52 8.64L74.52 8.64Q74.23 8.64 73.86 9.11L73.86 9.11L73.86 9.11Q73.50 9.58 73.21 10.32L73.21 10.32L73.04 10.28L73.04 10.28Q73.44 9.34 73.87 8.79L73.87 8.79L73.87 8.79Q74.30 8.23 74.93 8.23L74.93 8.23L74.93 8.23Q75.39 8.23 75.55 8.45L75.55 8.45L75.55 8.45Q75.71 8.67 75.71 9.00L75.71 9.00L75.70 9.34L75.70 9.34Q75.70 9.46 75.74 9.46L75.74 9.46L75.74 9.46Q75.77 9.46 75.82 9.41L75.82 9.41L75.82 9.41Q75.88 9.34 76.13 9.02L76.13 9.02L76.13 9.02Q76.37 8.71 76.80 8.47L76.80 8.47L76.80 8.47Q77.22 8.23 77.77 8.23L77.77 8.23L77.77 8.23Q78.75 8.23 78.75 9.10L78.75 9.10L78.75 9.10Q78.75 9.44 78.64 9.86L78.64 9.86L78.64 9.86Q78.53 10.29 78.32 10.95L78.32 10.95L78.32 10.95Q78.08 11.68 77.95 12.19L77.95 12.19L77.95 12.19Q77.81 12.71 77.81 13.16L77.81 13.16L77.81 13.16Q77.81 13.45 77.88 13.58L77.88 13.58L77.88 13.58Q77.95 13.71 78.11 13.71L78.11 13.71L78.11 13.71Q78.69 13.71 79.39 12.03L79.39 12.03L79.55 12.07L79.55 12.07Q79.11 13.09 78.70 13.62L78.70 13.62L78.70 13.62Q78.29 14.15 77.67 14.15L77.67 14.15Z"></path></g><!----><!----></svg>